<svg width="20" height="20" viewBox="0 0 20 20" fill="none" xmlns="http://www.w3.org/2000/svg">
  <path d="M18.7539 6.25395L12.3555 12.7227L7.27734 7.64458L11.8008 3.12504L11.2539 2.61372C10.9219 2.2477 10.3281 2.2477 9.96094 2.61372L6.56641 5.94145C6.23438 6.33989 5.64063 6.33989 5.27344 5.94145C4.91016 5.60942 4.91016 5.01567 5.27344 4.64848L8.63672 1.28793C9.73438 0.189614 11.5156 0.189614 12.6133 1.28793L13.125 1.79926L13.7109 1.21215C15.1133 -0.18937 17.3867 -0.18937 18.7539 1.21215C20.1914 2.61372 20.1914 4.88676 18.7539 6.25395ZM8.96484 16.1133C7.08984 17.9883 4.69922 19.2657 2.09766 19.7852L1.12148 19.9805C0.814062 20.043 0.496094 19.9454 0.274609 19.6915C0.0529684 19.504 -0.0432426 19.1875 0.0182106 18.879L0.213476 17.9024C0.733594 15.3008 2.0125 12.9102 3.88828 11.0352L6.39453 8.52739L11.4727 13.6055L8.96484 16.1133Z" fill="white" />
</svg>
