<svg width="17" height="17" viewBox="0 0 17 17" fill="none" xmlns="http://www.w3.org/2000/svg">
  <path d="M17 6.33842V6.14585C17 3.82495 15.3226 1.84538 13.0355 1.4642C11.5514 1.21219 9.98086 1.70559 8.89844 2.78967L8.5 3.18745L8.13144 2.78967C7.01914 1.70559 5.47852 1.21219 3.96445 1.4642C1.67676 1.84538 0 3.82495 0 6.14585V6.33842C0 7.71635 0.571095 9.03452 1.58047 9.97416L7.58027 15.5755C7.8293 15.808 8.15801 15.9374 8.5 15.9374C8.84199 15.9374 9.1707 15.808 9.41973 15.5755L15.4199 9.97416C16.4279 9.03452 17 7.71635 17 6.33842H17Z" fill="white"/>
</svg>
