<svg width="31" height="31" viewBox="0 0 31 31" fill="none" xmlns="http://www.w3.org/2000/svg">
  <path d="M30.9455 22.2268C30.9455 24.9017 28.3432 27.0705 25.1875 27.0705C22.0318 27.0705 19.4295 24.9017 19.4295 22.2812C19.4295 19.6063 22.0318 17.492 25.1875 17.492C25.8705 17.492 26.5165 17.6082 27.1256 17.7886V8.96699L11.625 13.5625L11.6249 26.1623C11.5705 28.8324 9.02148 31 5.75801 31C2.49453 31 0 28.8324 0 26.1562C0 23.4813 2.6023 21.367 5.75801 21.367C6.44098 21.367 7.08701 21.4832 7.69551 21.6636V7.65918C7.69551 6.87389 8.30461 6.04682 9.05236 5.81129L28.3729 0.0902148C28.5842 0.0400518 28.899 0 29.0625 0C30.1318 0 30.9982 0.868242 31 1.93689L30.9455 22.2268Z" fill="white" />
</svg>
