<svg width="172" height="30" viewBox="0 0 172 30" fill="none" xmlns="http://www.w3.org/2000/svg">
<path d="M57.1449 10.3636C57.0384 9.46402 56.6063 8.76562 55.8487 8.26847C55.0911 7.77131 54.1619 7.52273 53.0611 7.52273C52.2562 7.52273 51.5518 7.65293 50.9482 7.91335C50.3504 8.17377 49.8828 8.53184 49.5455 8.98757C49.214 9.4433 49.0483 9.96117 49.0483 10.5412C49.0483 11.0265 49.1637 11.4438 49.3945 11.793C49.6313 12.1362 49.9331 12.4233 50.3001 12.6541C50.667 12.879 51.0517 13.0655 51.4542 13.2134C51.8567 13.3555 52.2266 13.4709 52.5639 13.5597L54.4105 14.0568C54.884 14.1811 55.4107 14.3527 55.9908 14.5717C56.5767 14.7907 57.136 15.0896 57.6687 15.4684C58.2073 15.8413 58.6512 16.3207 59.0004 16.9066C59.3496 17.4925 59.5241 18.2116 59.5241 19.0639C59.5241 20.0464 59.2667 20.9342 58.7518 21.7273C58.2428 22.5204 57.497 23.1507 56.5146 23.6183C55.538 24.0858 54.3513 24.3196 52.9545 24.3196C51.6525 24.3196 50.525 24.1095 49.5721 23.6893C48.6251 23.2691 47.8794 22.6831 47.3349 21.9315C46.7963 21.1798 46.4915 20.3068 46.4205 19.3125H48.6932C48.7524 19.9991 48.9832 20.5672 49.3857 21.017C49.794 21.4609 50.3089 21.7924 50.9304 22.0114C51.5578 22.2244 52.2325 22.331 52.9545 22.331C53.795 22.331 54.5496 22.1948 55.2184 21.9226C55.8872 21.6444 56.4169 21.2597 56.8075 20.7685C57.1982 20.2713 57.3935 19.6913 57.3935 19.0284C57.3935 18.4247 57.2248 17.9335 56.8874 17.5547C56.5501 17.1759 56.1062 16.8681 55.5558 16.6314C55.0053 16.3946 54.4105 16.1875 53.7713 16.0099L51.5341 15.3707C50.1136 14.9624 48.9891 14.3794 48.1605 13.6218C47.3319 12.8642 46.9176 11.8729 46.9176 10.6477C46.9176 9.62973 47.1928 8.74195 47.7433 7.98438C48.2996 7.22088 49.0453 6.62902 49.9805 6.20881C50.9215 5.78267 51.9721 5.5696 53.1321 5.5696C54.304 5.5696 55.3456 5.77971 56.2571 6.19993C57.1686 6.61423 57.8906 7.18241 58.4233 7.90447C58.9619 8.62654 59.246 9.44626 59.2756 10.3636H57.1449ZM71.4537 18.4247V10.3636H73.5489V24H71.4537V21.6918H71.3117C70.9921 22.3842 70.4949 22.9731 69.8202 23.4585C69.1455 23.9379 68.2932 24.1776 67.2634 24.1776C66.4111 24.1776 65.6536 23.9911 64.9907 23.6183C64.3278 23.2395 63.807 22.6713 63.4282 21.9137C63.0494 21.1502 62.86 20.1884 62.86 19.0284V10.3636H64.9552V18.8864C64.9552 19.8807 65.2333 20.6738 65.7897 21.2656C66.3519 21.8575 67.0681 22.1534 67.9381 22.1534C68.459 22.1534 68.9887 22.0202 69.5273 21.7539C70.0718 21.4876 70.5275 21.0792 70.8944 20.5288C71.2673 19.9783 71.4537 19.277 71.4537 18.4247ZM76.9957 24V22.402L84.7372 12.4588V12.3168H77.2443V10.3636H87.4361V12.0327L79.9077 21.9048V22.0469H87.6847V24H76.9957ZM92.2612 29.1136C91.9061 29.1136 91.5894 29.084 91.3113 29.0249C91.0331 28.9716 90.8407 28.9183 90.7342 28.8651L91.2669 27.0185C91.7759 27.1487 92.2257 27.196 92.6163 27.1605C93.0069 27.125 93.3532 26.9504 93.655 26.6367C93.9628 26.329 94.2439 25.8288 94.4984 25.1364L94.889 24.071L89.8464 10.3636H92.1191L95.8833 21.2301H96.0254L99.7896 10.3636H102.062L96.274 25.9886C96.0136 26.6929 95.691 27.2759 95.3063 27.7376C94.9216 28.2051 94.4747 28.5514 93.9657 28.7763C93.4627 29.0012 92.8945 29.1136 92.2612 29.1136ZM112.143 24V5.81818H118.287C119.713 5.81818 120.879 6.07564 121.784 6.59055C122.696 7.09955 123.371 7.78906 123.809 8.65909C124.247 9.52912 124.466 10.4998 124.466 11.571C124.466 12.6423 124.247 13.6159 123.809 14.4918C123.377 15.3678 122.708 16.0662 121.802 16.587C120.897 17.1019 119.737 17.3594 118.322 17.3594H113.919V15.4062H118.251C119.228 15.4062 120.012 15.2376 120.604 14.9002C121.196 14.5629 121.625 14.1071 121.891 13.533C122.163 12.953 122.299 12.299 122.299 11.571C122.299 10.843 122.163 10.192 121.891 9.6179C121.625 9.0438 121.193 8.59399 120.595 8.26847C119.997 7.93703 119.204 7.77131 118.216 7.77131H114.345V24H112.143ZM129.823 5.81818V24H127.728V5.81818H129.823ZM137.674 24.3196C136.809 24.3196 136.025 24.1568 135.321 23.8313C134.617 23.4999 134.057 23.0234 133.643 22.402C133.229 21.7746 133.022 21.017 133.022 20.1293C133.022 19.348 133.175 18.7147 133.483 18.2294C133.791 17.7382 134.202 17.3535 134.717 17.0753C135.232 16.7971 135.8 16.59 136.422 16.4538C137.049 16.3118 137.679 16.1993 138.313 16.1165C139.141 16.0099 139.813 15.93 140.328 15.8768C140.849 15.8176 141.228 15.7199 141.464 15.5838C141.707 15.4477 141.828 15.2109 141.828 14.8736V14.8026C141.828 13.9266 141.589 13.246 141.109 12.7607C140.636 12.2753 139.917 12.0327 138.952 12.0327C137.952 12.0327 137.168 12.2517 136.599 12.6896C136.031 13.1276 135.632 13.5952 135.401 14.0923L133.412 13.3821C133.767 12.5535 134.241 11.9084 134.833 11.4467C135.43 10.9792 136.081 10.6536 136.786 10.4702C137.496 10.2808 138.194 10.1861 138.881 10.1861C139.319 10.1861 139.822 10.2393 140.39 10.3459C140.964 10.4465 141.518 10.6566 142.05 10.9762C142.589 11.2958 143.036 11.7782 143.391 12.4233C143.746 13.0684 143.924 13.9325 143.924 15.0156V24H141.828V22.1534H141.722C141.58 22.4493 141.343 22.766 141.012 23.1033C140.68 23.4407 140.239 23.7277 139.689 23.9645C139.138 24.2012 138.467 24.3196 137.674 24.3196ZM137.993 22.4375C138.822 22.4375 139.52 22.2747 140.088 21.9492C140.662 21.6237 141.094 21.2035 141.384 20.6886C141.68 20.1737 141.828 19.6321 141.828 19.0639V17.1463C141.74 17.2528 141.544 17.3505 141.242 17.4393C140.947 17.5221 140.603 17.5961 140.213 17.6612C139.828 17.7204 139.452 17.7737 139.085 17.821C138.724 17.8625 138.431 17.898 138.206 17.9276C137.662 17.9986 137.153 18.114 136.679 18.2738C136.212 18.4277 135.833 18.6615 135.543 18.9751C135.259 19.2829 135.117 19.7031 135.117 20.2358C135.117 20.9638 135.386 21.5142 135.925 21.8871C136.469 22.254 137.159 22.4375 137.993 22.4375ZM148.609 29.1136C148.254 29.1136 147.937 29.084 147.659 29.0249C147.381 28.9716 147.188 28.9183 147.082 28.8651L147.615 27.0185C148.124 27.1487 148.573 27.196 148.964 27.1605C149.355 27.125 149.701 26.9504 150.003 26.6367C150.31 26.329 150.592 25.8288 150.846 25.1364L151.237 24.071L146.194 10.3636H148.467L152.231 21.2301H152.373L156.137 10.3636H158.41L152.622 25.9886C152.361 26.6929 152.039 27.2759 151.654 27.7376C151.269 28.2051 150.822 28.5514 150.313 28.7763C149.81 29.0012 149.242 29.1136 148.609 29.1136ZM170.835 13.4176L168.952 13.9503C168.834 13.6366 168.659 13.3318 168.429 13.0359C168.204 12.734 167.896 12.4854 167.505 12.2901C167.115 12.0948 166.615 11.9972 166.005 11.9972C165.17 11.9972 164.475 12.1895 163.919 12.5742C163.368 12.953 163.093 13.4354 163.093 14.0213C163.093 14.5421 163.282 14.9535 163.661 15.2553C164.04 15.5572 164.632 15.8087 165.437 16.0099L167.461 16.5071C168.68 16.803 169.589 17.2558 170.186 17.8654C170.784 18.4691 171.083 19.2474 171.083 20.2003C171.083 20.9815 170.858 21.6799 170.408 22.2955C169.964 22.911 169.343 23.3963 168.544 23.7514C167.745 24.1065 166.816 24.2841 165.756 24.2841C164.366 24.2841 163.214 23.9822 162.303 23.3786C161.391 22.7749 160.814 21.893 160.572 20.733L162.56 20.2358C162.75 20.9697 163.108 21.5201 163.635 21.8871C164.167 22.254 164.863 22.4375 165.721 22.4375C166.697 22.4375 167.473 22.2304 168.047 21.8161C168.627 21.3958 168.917 20.8928 168.917 20.3068C168.917 19.8333 168.751 19.4368 168.42 19.1172C168.088 18.7917 167.579 18.549 166.893 18.3892L164.62 17.8565C163.371 17.5606 162.454 17.1019 161.868 16.4805C161.288 15.8531 160.998 15.0689 160.998 14.1278C160.998 13.3584 161.214 12.6778 161.646 12.0859C162.084 11.4941 162.679 11.0295 163.43 10.6921C164.188 10.3548 165.046 10.1861 166.005 10.1861C167.354 10.1861 168.414 10.482 169.183 11.0739C169.959 11.6657 170.509 12.447 170.835 13.4176Z" fill="white"/>
<path d="M30.3245 4.09199C30.315 4.07343 30.2994 4.05889 30.2803 4.05097C28.0763 3.02609 25.7504 2.29526 23.3609 1.87679C23.3392 1.8727 23.3168 1.87565 23.2968 1.88523C23.2769 1.8948 23.2604 1.91051 23.2498 1.93011C22.9331 2.5127 22.6456 3.11112 22.3884 3.72308C19.8126 3.3268 17.1926 3.3268 14.6169 3.72308C14.358 3.10957 14.0659 2.511 13.7419 1.93011C13.7308 1.91093 13.7142 1.89559 13.6944 1.88608C13.6745 1.87657 13.6523 1.87333 13.6306 1.87679C11.2409 2.29439 8.91489 3.02526 6.71117 4.05103C6.69231 4.05914 6.67639 4.07298 6.66562 4.09064C2.25863 10.7608 1.05139 17.267 1.64362 23.6927C1.64529 23.7084 1.65006 23.7236 1.65766 23.7375C1.66526 23.7513 1.67552 23.7635 1.68785 23.7732C4.254 25.6989 7.12426 27.1688 10.1762 28.1202C10.1977 28.1268 10.2206 28.1265 10.2419 28.1194C10.2633 28.1123 10.2819 28.0988 10.2954 28.0806C10.9509 27.1767 11.5317 26.2195 12.0319 25.2188C12.0388 25.2051 12.0427 25.19 12.0435 25.1746C12.0442 25.1592 12.0417 25.1439 12.0361 25.1296C12.0305 25.1152 12.022 25.1023 12.0112 25.0915C12.0003 25.0807 11.9873 25.0724 11.973 25.0671C11.0571 24.712 10.1705 24.2838 9.32129 23.7867C9.30587 23.7775 9.29291 23.7646 9.28357 23.7491C9.27423 23.7337 9.26879 23.7161 9.26774 23.698C9.26668 23.6799 9.27004 23.6618 9.27751 23.6453C9.28499 23.6289 9.29635 23.6145 9.3106 23.6035C9.48878 23.4682 9.66707 23.3275 9.83721 23.1853C9.85233 23.1727 9.87062 23.1646 9.89003 23.162C9.90943 23.1593 9.92918 23.1622 9.94706 23.1703C15.5103 25.7436 21.5333 25.7436 27.0307 23.1703C27.0486 23.1617 27.0685 23.1584 27.0882 23.1608C27.1079 23.1632 27.1265 23.1713 27.1419 23.184C27.3121 23.3261 27.4903 23.4682 27.6698 23.6035C27.6842 23.6144 27.6956 23.6287 27.7032 23.6451C27.7108 23.6615 27.7143 23.6795 27.7134 23.6976C27.7124 23.7157 27.7071 23.7333 27.6979 23.7489C27.6887 23.7644 27.6758 23.7774 27.6605 23.7867C26.8132 24.288 25.9257 24.7159 25.0074 25.0658C24.9932 25.0713 24.9802 25.0798 24.9694 25.0907C24.9586 25.1016 24.9502 25.1147 24.9448 25.1292C24.9393 25.1436 24.9369 25.1591 24.9378 25.1745C24.9386 25.1899 24.9426 25.205 24.9496 25.2188C25.4582 26.2139 26.0382 27.1699 26.6848 28.079C26.6979 28.0977 26.7165 28.1117 26.7379 28.119C26.7593 28.1264 26.7825 28.1268 26.8041 28.1201C29.8615 27.1719 32.7367 25.7018 35.3061 23.7732C35.3186 23.764 35.329 23.7521 35.3367 23.7384C35.3443 23.7248 35.349 23.7096 35.3503 23.694C36.0593 16.2653 34.1633 9.81244 30.3245 4.09199ZM12.8628 19.7801C11.1878 19.7801 9.80773 18.2223 9.80773 16.3091C9.80773 14.3959 11.1611 12.8379 12.8628 12.8379C14.5778 12.8379 15.9445 14.4094 15.9178 16.309C15.9178 18.2223 14.5644 19.7801 12.8628 19.7801ZM24.1582 19.7801C22.4833 19.7801 21.1032 18.2223 21.1032 16.3091C21.1032 14.3959 22.4565 12.8379 24.1582 12.8379C25.8733 12.8379 27.24 14.4094 27.2132 16.309C27.2132 18.2223 25.8733 19.7801 24.1582 19.7801Z" fill="white"/>
</svg>
