<svg width="12" height="16" viewBox="0 0 12 16" fill="none" xmlns="http://www.w3.org/2000/svg">
  <path d="M3.62143 0.552813C3.76607 0.214 4.06339 0 4.3875 0H7.6125C7.93661 0 8.23393 0.214 8.37857 0.552813L8.57143 1H11.1429C11.617 1 12 1.44781 12 2C12 2.55219 11.617 3 11.1429 3H0.857143C0.383839 3 0 2.55219 0 2C0 1.44781 0.383839 1 0.857143 1H3.42857L3.62143 0.552813ZM0.833036 4H11.1429V14C11.1429 15.1031 10.3741 16 9.42857 16H2.54732C1.62455 16 0.833036 15.1031 0.833036 14V4ZM2.97589 6.5V13.5C2.97589 13.775 3.19286 14 3.40446 14C3.66429 14 3.83304 13.775 3.83304 13.5V6.5C3.83304 6.225 3.66429 6 3.40446 6C3.19286 6 2.97589 6.225 2.97589 6.5ZM5.54732 6.5V13.5C5.54732 13.775 5.76429 14 5.97589 14C6.23571 14 6.42857 13.775 6.42857 13.5V6.5C6.42857 6.225 6.23571 6 5.97589 6C5.76429 6 5.54732 6.225 5.54732 6.5ZM8.14286 6.5V13.5C8.14286 13.775 8.33571 14 8.57143 14C8.80714 14 9 13.775 9 13.5V6.5C9 6.225 8.80714 6 8.57143 6C8.33571 6 8.14286 6.225 8.14286 6.5Z" fill="#6A89CC" />
</svg>
